<svg viewBox="0 0 265 43" xmlns="http://www.w3.org/2000/svg" data-logo="logo">
        <g transform="translate(0, 1) rotate(0)" id="logogram" style="opacity: 1;"><path fill="#9FE870" d="M37.6855 40.6999C44.1183 40.5688 49.2908 35.3072 49.2908 28.8387C49.2908 25.693 48.042 22.676 45.8191 20.4517L26.0803 0.69989V12.9769C26.0803 15.0302 26.8955 16.9994 28.3464 18.4513L32.9703 23.0783L32.983 23.0906L40.7361 30.8488C40.9879 31.1008 40.9879 31.5093 40.7361 31.7612C40.4843 32.0132 40.0761 32.0132 39.8243 31.7612L37.1518 29.087H12.4299L9.75738 31.7612C9.5056 32.0132 9.09737 32.0132 8.84559 31.7612C8.5938 31.5093 8.5938 31.1008 8.84559 30.8488L16.5987 23.0906L16.6113 23.0783L21.2353 18.4513C22.6862 16.9994 23.5013 15.0302 23.5013 12.9769V0.69989L3.76259 20.4517C1.53966 22.676 0.290833 25.693 0.290833 28.8387C0.290833 35.3072 5.46336 40.5688 11.8962 40.6999H37.6855Z"></path></g>
        <g transform="translate(56, 9)" id="logotype" style="opacity: 1;"><path d="M13.09 25L6.67 25L6.67 20.68L12.13 20.68L12.13 1.38L17.08 1.38L17.08 21.12Q17.08 23.07 16.03 24.04Q14.98 25 13.09 25L13.09 25ZM27.99 25.32L27.99 25.32Q24.35 25.32 22.39 23.40Q20.44 21.47 20.44 18.15L20.44 18.15L20.44 7.50L25.28 7.50L25.28 17.21Q25.28 19.11 26.26 20.06Q27.23 21.00 29.19 21.00L29.19 21.00Q31.20 21.00 32.29 19.98Q33.39 18.96 33.39 17.07L33.39 17.07L33.39 7.50L38.23 7.50L38.23 20.22L40.62 20.22L40.62 25L35.72 25L35.72 22.14L34.50 22.14Q33.45 23.69 31.94 24.50Q30.44 25.32 27.99 25.32ZM50.48 25.35L50.48 25.35Q47.74 25.35 45.68 24.23Q43.63 23.10 42.47 21.06Q41.32 19.02 41.32 16.25L41.32 16.25Q41.32 13.48 42.46 11.44Q43.60 9.40 45.67 8.27Q47.74 7.15 50.48 7.15L50.48 7.15Q53.95 7.15 56.20 8.90Q58.44 10.65 59.03 13.71L59.03 13.71L54.15 13.71Q53.77 12.57 52.84 11.96Q51.91 11.35 50.48 11.35L50.48 11.35Q48.52 11.35 47.34 12.63Q46.16 13.92 46.16 16.25L46.16 16.25Q46.16 18.58 47.36 19.87Q48.55 21.15 50.48 21.15L50.48 21.15Q53.57 21.15 54.24 18.52L54.24 18.52L59.11 18.52Q58.59 21.73 56.34 23.54Q54.10 25.35 50.48 25.35ZM68.53 25.35L68.53 25.35Q65.70 25.35 63.60 24.23Q61.50 23.10 60.37 21.05Q59.23 18.99 59.23 16.19L59.23 16.19Q59.23 13.39 60.34 11.36Q61.45 9.34 63.50 8.24Q65.56 7.15 68.36 7.15L68.36 7.15Q71.10 7.15 73.07 8.20Q75.04 9.25 76.09 11.20Q77.14 13.16 77.14 15.87L77.14 15.87L77.14 17.50L63.87 17.50Q64.16 19.46 65.35 20.48Q66.55 21.50 68.50 21.50L68.50 21.50Q70.05 21.50 70.95 20.98Q71.86 20.45 72.24 19.37L72.24 19.37L77.08 19.37Q76.50 22.17 74.25 23.76Q72.00 25.35 68.53 25.35ZM63.98 14.30L63.98 14.30L72.50 14.30Q72.27 12.63 71.22 11.80Q70.17 10.97 68.39 10.97L68.39 10.97Q66.61 10.97 65.49 11.82Q64.36 12.66 63.98 14.30ZM85.07 25L80.23 25L80.23 12.28L77.84 12.28L77.84 7.50L82.74 7.50L82.74 10.36L83.96 10.36Q84.98 8.84 86.53 8.01Q88.08 7.18 90.38 7.18L90.38 7.18Q94.03 7.18 96.02 9.18Q98.02 11.17 98.02 14.53L98.02 14.53L98.02 25L93.18 25L93.18 15.43Q93.18 13.51 92.14 12.50Q91.11 11.50 89.13 11.50L89.13 11.50Q87.14 11.50 86.11 12.50Q85.07 13.51 85.07 15.43L85.07 15.43L85.07 25ZM105.60 25L100.76 25L100.76 7.50L105.60 7.50L105.60 25ZM103.18 5.78L103.18 5.78Q102.08 5.78 101.30 5.01Q100.53 4.23 100.53 3.13L100.53 3.13Q100.53 2.02 101.30 1.24Q102.08 0.47 103.18 0.47L103.18 0.47Q104.29 0.47 105.06 1.24Q105.84 2.02 105.84 3.13L105.84 3.13Q105.84 4.23 105.06 5.01Q104.29 5.78 103.18 5.78ZM116.69 25.35L116.69 25.35Q113.95 25.35 111.89 24.23Q109.83 23.10 108.68 21.06Q107.53 19.02 107.53 16.25L107.53 16.25Q107.53 13.48 108.67 11.44Q109.80 9.40 111.88 8.27Q113.95 7.15 116.69 7.15L116.69 7.15Q120.16 7.15 122.40 8.90Q124.65 10.65 125.23 13.71L125.23 13.71L120.36 13.71Q119.98 12.57 119.05 11.96Q118.12 11.35 116.69 11.35L116.69 11.35Q114.73 11.35 113.55 12.63Q112.37 13.92 112.37 16.25L112.37 16.25Q112.37 18.58 113.57 19.87Q114.76 21.15 116.69 21.15L116.69 21.15Q119.78 21.15 120.45 18.52L120.45 18.52L125.32 18.52Q124.80 21.73 122.55 23.54Q120.30 25.35 116.69 25.35ZM143.49 25L134.19 25L134.19 1.38L143.49 1.38Q147.34 1.38 150.14 2.80Q152.94 4.23 154.46 6.89Q155.98 9.54 155.98 13.19L155.98 13.19Q155.98 16.80 154.44 19.46Q152.91 22.11 150.11 23.56Q147.31 25 143.49 25L143.49 25ZM139.12 5.57L139.12 20.80L143.49 20.80Q147.17 20.80 149.08 18.71Q150.99 16.63 150.99 13.19L150.99 13.19Q150.99 9.72 149.08 7.65Q147.17 5.57 143.49 5.57L143.49 5.57L139.12 5.57ZM163.85 25.32L163.85 25.32Q160.76 25.32 159.01 23.82Q157.26 22.32 157.26 19.87L157.26 19.87Q157.26 17.27 159.07 15.87Q160.87 14.47 164.26 14.47L164.26 14.47L169.27 14.47L169.27 13.80Q169.27 10.97 165.89 10.97L165.89 10.97Q162.95 10.97 162.33 13.01L162.33 13.01L157.52 13.01Q158.10 10.13 160.23 8.64Q162.36 7.15 165.89 7.15L165.89 7.15Q169.80 7.15 171.86 8.90Q173.91 10.65 173.91 14.00L173.91 14.00L173.91 20.22L176.19 20.22L176.19 25L171.29 25L171.29 22.14L170.06 22.14Q169.16 23.66 167.64 24.49Q166.13 25.32 163.85 25.32ZM164.58 21.65L164.58 21.65Q165.95 21.65 167 21.15Q168.05 20.65 168.66 19.82Q169.27 18.99 169.27 17.94L169.27 17.94L169.27 17.68L164.49 17.68Q161.87 17.68 161.87 19.63L161.87 19.63Q161.87 20.60 162.60 21.12Q163.32 21.65 164.58 21.65ZM188.70 25L183.39 25Q181.52 25 180.49 24.05Q179.45 23.10 179.45 21.15L179.45 21.15L179.45 11.29L176.45 11.29L176.45 7.50L179.51 7.50L179.51 2.25L184.24 2.25L184.24 7.50L188.29 7.50L188.29 11.29L184.30 11.29L184.30 21.21L188.70 21.21L188.70 25ZM195.93 25.32L195.93 25.32Q192.84 25.32 191.09 23.82Q189.34 22.32 189.34 19.87L189.34 19.87Q189.34 17.27 191.15 15.87Q192.96 14.47 196.34 14.47L196.34 14.47L201.36 14.47L201.36 13.80Q201.36 10.97 197.97 10.97L197.97 10.97Q195.03 10.97 194.42 13.01L194.42 13.01L189.60 13.01Q190.19 10.13 192.32 8.64Q194.45 7.15 197.97 7.15L197.97 7.15Q201.88 7.15 203.94 8.90Q206.00 10.65 206.00 14.00L206.00 14.00L206.00 20.22L208.27 20.22L208.27 25L203.37 25L203.37 22.14L202.15 22.14Q201.24 23.66 199.72 24.49Q198.21 25.32 195.93 25.32ZM196.66 21.65L196.66 21.65Q198.03 21.65 199.08 21.15Q200.13 20.65 200.75 19.82Q201.36 18.99 201.36 17.94L201.36 17.94L201.36 17.68L196.57 17.68Q193.95 17.68 193.95 19.63L193.95 19.63Q193.95 20.60 194.68 21.12Q195.41 21.65 196.66 21.65Z" fill="#030303"></path></g>
        
      </svg>